<svg width="1024" height="1024" viewBox="0 0 1024 1024" fill="none" xmlns="http://www.w3.org/2000/svg">
<g clip-path="url(#clip0_3_2)">
<rect width="1024" height="1024" fill="white"/>
<path d="M575.393 381.202C601.358 377.984 628.859 388.331 648.299 405.273C667.83 422.16 679.856 446.111 681.732 471.862C683.126 492.723 676.948 519.014 663.134 534.916C649.521 531.576 643.167 524.997 635.936 513.288C642.183 504.963 644.904 492.112 644.97 481.888C645.079 465.094 639.095 450.366 627.239 438.436C615.832 426.831 600.235 420.303 583.962 420.324C567.895 420.366 551.979 426.543 540.665 438.063C529.037 449.977 522.68 466.062 523.021 482.706C523.239 495.474 526.336 505.124 533.411 515.754C547.316 536.648 568.226 543.385 592.512 542.934L589.35 539.197C585.27 534.536 580.158 529.109 576.953 523.868C574.179 519.113 573.697 515.09 575.123 509.935C578.734 496.874 594.244 489.313 605.908 497.581C610.377 500.749 612.792 504.993 616.376 509.08C627.618 521.899 637.835 539.128 655.209 544.075C667.282 547.277 674.332 546.056 684.949 540.366C680.778 562.223 664.596 575.465 642.575 578.743C633.031 580.163 621.539 579.089 611.898 579.322C581.097 580.066 549.284 580.657 524.005 559.96C502.181 542.79 489.171 520.294 485.987 492.524C482.994 466.004 490.624 439.379 507.207 418.468C524.639 396.817 547.757 384.239 575.393 381.202Z" fill="#291F19"/>
<path d="M402.551 382.195C405.62 381.744 413.289 381.865 416.641 381.876L439.451 381.961L518.516 382.107C509.423 411.989 481.701 421.331 453.389 421.763C452.515 449.885 453.453 478.462 453.329 506.627C453.228 529.719 474.488 545.941 496.445 547.653C502.683 559.372 508.527 567.587 519.358 575.489C520.965 576.631 523.289 577.905 525.034 578.929C517.463 578.935 509.009 579.22 501.356 579.389C476.361 579.941 453.265 579.103 434.188 560.436C424.82 551.27 417.665 536.657 414.927 523.901C412.008 510.296 412.968 493.618 412.978 479.402L413.021 421.94C390.452 421.681 367.301 422.029 344.806 421.376C346.847 416.56 349.527 412.615 352.711 408.525C366.15 391.265 381.294 384.668 402.551 382.195Z" fill="#291F19"/>
<path d="M602.887 273.432C612.935 273.281 626.665 278.162 635.378 282.996C655.35 294.155 670.029 312.841 676.141 334.888C679.91 348.84 679.229 366.653 679.196 381.342L679.069 420.365C672.034 408.808 668.174 405.044 658.864 395.519L659.003 368.334C649.211 368.017 637.37 368.388 627.396 368.42L572.243 368.374L364.573 368.469L364.657 379.801C356.304 384.203 352.702 386.439 345.753 392.752C345.266 385.55 345.804 377.463 345.53 370.287C344.58 345.467 347.541 324.443 363.698 304.225C377.494 286.956 397.649 275.951 419.636 273.682L420.471 273.741C421.551 275.337 421.036 290.802 421.006 293.86C390.611 298.83 370.005 317.582 365.729 348.488L659.101 348.416C656.612 335.956 653.302 326.28 644.899 316.392C634.262 303.982 619.201 296.214 602.923 294.743L602.887 273.432Z" fill="#291F19"/>
<path d="M506.774 659.19C524.624 656.971 536.529 664.314 546.789 677.996C546.762 672.35 546.696 667.009 547.035 661.364C550.095 660.934 553.381 661.028 556.491 661.007C556.521 702.45 555.993 744.44 556.41 785.797L546.961 785.592C546.897 774.771 546.898 763.949 546.963 753.128C546.999 746.532 546.987 739.935 546.928 733.339C534.771 755.932 501.077 759.968 483.067 744.355C451.675 717.142 462.779 664.1 506.774 659.19Z" fill="#291F19"/>
<path d="M506.817 668.148C533.777 665.665 548.598 684.702 547.072 710.333C545.941 729.325 535.374 741.711 516.593 744.938C467.846 751.114 457.849 675.774 506.817 668.148Z" fill="white"/>
<path d="M746.612 659.201C750.844 658.811 755.11 659.042 759.274 659.886C772.182 662.503 778.952 668.196 785.979 678.805C785.883 672.826 785.831 667.607 786.098 661.624C789.718 661.133 792.2 661.098 795.871 661.037C796.318 690.676 795.992 721.92 795.846 751.592L785.52 751.542L785.539 733.085C783.181 737.061 781.623 739.505 778.508 742.865C772.037 749.127 764.52 752.142 755.669 753.188C728.863 756.263 707.285 738.65 704.925 711.756C702.352 682.43 716.63 662.092 746.612 659.201Z" fill="#291F19"/>
<path d="M746.791 668.194C794.398 662.854 802.583 737.662 753.616 744.957C743.669 745.419 736.344 743.797 728.265 737.713C707.03 721.722 708.639 681.188 734.822 670.927C739.182 669.218 742.151 668.668 746.791 668.194Z" fill="white"/>
<path d="M317.416 659.206C334.723 657.959 346.427 664.446 355.986 678.329C356.287 672.696 356.326 666.743 356.454 661.082C359.678 661.003 362.802 661.138 366.022 661.248L366.037 751.465L355.895 751.515C355.98 745.136 355.957 738.757 355.825 732.379C353.232 736.612 351.586 739.072 348.193 742.63C341.359 749.326 334.11 752.303 324.424 753.252C280.159 757.585 260.471 705.936 285.653 673.942C293.114 664.463 305.37 660.108 317.416 659.206Z" fill="#291F19"/>
<path d="M314.974 668.164C366.083 662.898 370.679 736.258 326.606 744.411C316.348 745.597 308.23 744.564 299.59 738.307C291.367 732.312 285.877 723.282 284.338 713.223C280.847 691.122 292.191 671.763 314.974 668.164Z" fill="white"/>
<path d="M345.81 436.473L364.592 436.467L364.788 470.718C364.815 493.026 363.614 511.367 377.098 530.992C385.433 543.123 399.237 553.421 413.906 556.14C419.215 565.936 424.341 571.371 433.08 578.42C408.851 579.413 385.114 569.401 368.608 551.766C362.818 545.579 359.04 539.583 355.095 532.2C345.008 513.323 345.249 493.008 345.518 472.269C345.653 460.395 345.418 448.418 345.81 436.473Z" fill="#291F19"/>
<path d="M631.486 622.205C660.014 619.273 682.86 636.275 692.156 662.644C689.095 662.863 685.335 662.848 682.212 662.914C672.444 637.86 647.07 627.804 621.883 633.707C576.965 644.234 572.153 714.396 609.626 736.325C622.487 743.851 636.769 745.324 651.043 741.642C667.148 736.879 676.011 726.936 682.488 712.01L692.494 712.093C683.531 734.932 667.917 750.671 642.78 753.104C557.881 761.321 548.127 629.226 631.486 622.205Z" fill="#291F19"/>
<path d="M206.451 623.25L284.845 623.499L284.811 633.386C270.184 633.29 255.557 633.292 240.93 633.392C241.168 664.844 241.209 696.297 241.055 727.75L241.091 751.467L230.964 751.448L230.991 633.424C217.484 632.69 199.862 633.235 185.899 633.162L185.958 623.45L206.451 623.25Z" fill="#291F19"/>
<path d="M414.595 658.706C433.581 657.264 447.596 665.085 451.492 684.711C448.769 684.803 446.167 684.608 443.454 684.447C441.633 680.597 439.096 675.549 435.63 672.882C428.437 665.508 402.08 665.757 396.785 675.176C386.036 694.902 411.192 698.99 425.721 701.689C447.03 705.647 461.361 720.9 446.968 741.897C441.077 750.492 430.624 752.486 420.371 753.459C400.575 753.959 386.215 748.335 383.744 726.515L392.645 726.275C393.109 730.495 394.312 736.003 397.606 738.902C409.645 749.498 446.496 746.394 443.669 724.99C443.104 719.083 438.196 715.511 433.026 713.369C413.799 705.402 378.37 707.006 386.447 675.503C389.831 662.307 402.726 659.588 414.595 658.706Z" fill="#291F19"/>
<path d="M465.024 273.524L559.484 273.547L559.472 293.207C547.218 292.858 533.797 293.143 521.494 293.149L465.057 292.901L465.024 273.524Z" fill="#291F19"/>
<path d="M579.183 240.044C584.352 239.786 589.47 242.195 589.606 247.792C590.182 271.534 590.786 296.436 590.072 320.1L583.283 320.038L571.536 320.142C571.522 309.783 570.233 249.14 572.736 244.493C574.149 241.87 576.473 240.908 579.183 240.044Z" fill="#291F19"/>
<path d="M440.959 241.04L441.539 241.007C447.031 240.735 451.528 242.601 452.106 248.731C452.853 256.653 452.519 264.891 452.507 272.884L452.403 320.948L445.307 320.974L433.96 320.987C433.989 310.411 432.803 252.64 434.768 246.849C435.804 243.797 438.235 242.421 440.959 241.04Z" fill="#291F19"/>
<path d="M817.206 622.139L826.503 621.942L826.493 696.412C826.474 708.312 826.182 720.602 826.712 732.499C827.171 742.788 833.693 743.243 842.19 743.333C842.289 746.071 842.3 748.941 842.349 751.692C816.791 751.8 817.12 739.828 817.116 718.499C817.114 712.039 817.075 705.216 817.067 698.729L817.206 622.139Z" fill="#291F19"/>
</g>
<defs>
<clipPath id="clip0_3_2">
<rect width="1024" height="1024" fill="white"/>
</clipPath>
</defs>
</svg>
